<svg preserveAspectRatio="none" overflow="visible" style="display: block;" width="24" height="24" viewBox="0 0 24 24" fill="none" xmlns="http://www.w3.org/2000/svg">
<g id="Frame">
<path id="Vector" d="M11.25 5.337C11.25 4.982 11.064 4.661 10.849 4.378C10.6251 4.09137 10.5024 3.7387 10.5 3.375C10.5 2.339 11.507 1.5 12.75 1.5C13.993 1.5 15 2.34 15 3.375C15 3.744 14.872 4.088 14.651 4.378C14.436 4.661 14.25 4.982 14.25 5.337C14.25 5.669 14.528 5.935 14.86 5.915C16.77 5.801 18.65 5.573 20.492 5.239C20.5923 5.22081 20.6953 5.22327 20.7947 5.24623C20.894 5.26919 20.9876 5.31217 21.0698 5.37254C21.152 5.43291 21.221 5.5094 21.2726 5.59734C21.3242 5.68528 21.3574 5.78282 21.37 5.884C21.5963 7.69296 21.7218 9.5131 21.746 11.336C21.7469 11.4231 21.7305 11.5096 21.6977 11.5903C21.6649 11.671 21.6164 11.7444 21.555 11.8062C21.4936 11.868 21.4205 11.9169 21.34 11.9502C21.2595 11.9835 21.1731 12.0004 21.086 12C20.732 12 20.411 11.814 20.128 11.599C19.8414 11.3751 19.4887 11.2524 19.125 11.25C18.09 11.25 17.25 12.257 17.25 13.5C17.25 14.743 18.09 15.75 19.125 15.75C19.494 15.75 19.838 15.622 20.128 15.401C20.411 15.186 20.732 15 21.087 15C21.397 15 21.644 15.262 21.621 15.571C21.5037 17.1949 21.3051 18.8119 21.026 20.416C20.9995 20.5681 20.9267 20.7083 20.8175 20.8175C20.7083 20.9267 20.5681 20.9995 20.416 21.026C18.596 21.343 16.743 21.559 14.861 21.668C14.7822 21.6722 14.7033 21.6603 14.6293 21.633C14.5552 21.6057 14.4875 21.5635 14.4303 21.5091C14.3731 21.4547 14.3276 21.3893 14.2966 21.3167C14.2656 21.2441 14.2498 21.1659 14.25 21.087C14.25 20.732 14.436 20.411 14.651 20.128C14.872 19.838 15 19.494 15 19.125C15 18.09 13.993 17.25 12.75 17.25C11.507 17.25 10.5 18.09 10.5 19.125C10.5 19.494 10.628 19.838 10.849 20.128C11.064 20.411 11.25 20.732 11.25 21.087C11.2503 21.1728 11.2334 21.2578 11.2002 21.3369C11.1671 21.416 11.1184 21.4877 11.057 21.5477C10.9956 21.6076 10.9229 21.6547 10.843 21.686C10.7631 21.7173 10.6778 21.7323 10.592 21.73C9.0178 21.6855 7.44665 21.5654 5.884 21.37C5.78282 21.3574 5.68528 21.3242 5.59734 21.2726C5.5094 21.221 5.43291 21.152 5.37254 21.0698C5.31217 20.9876 5.26919 20.894 5.24623 20.7947C5.22327 20.6953 5.22081 20.5923 5.239 20.492C5.532 18.878 5.743 17.235 5.868 15.568C5.87323 15.4952 5.86337 15.4221 5.83903 15.3533C5.81468 15.2844 5.77638 15.2214 5.72653 15.1681C5.67668 15.1147 5.61634 15.0723 5.54931 15.0434C5.48228 15.0144 5.41 14.9997 5.337 15C4.982 15 4.661 15.186 4.378 15.401C4.088 15.622 3.744 15.75 3.375 15.75C2.339 15.75 1.5 14.743 1.5 13.5C1.5 12.257 2.34 11.25 3.375 11.25C3.744 11.25 4.088 11.378 4.378 11.599C4.661 11.814 4.982 12 5.337 12C5.42399 12.0004 5.51019 11.9835 5.59059 11.9503C5.67099 11.917 5.74397 11.8682 5.8053 11.8065C5.86663 11.7448 5.91507 11.6715 5.94781 11.5909C5.98055 11.5103 5.99693 11.424 5.996 11.337C5.97412 9.72613 5.87066 8.1174 5.686 6.517C5.67292 6.40475 5.68537 6.291 5.72242 6.18424C5.75948 6.07748 5.82018 5.98048 5.89999 5.90047C5.9798 5.82047 6.07666 5.75953 6.18333 5.72222C6.29 5.68491 6.40372 5.67219 6.516 5.685C7.859 5.84 9.219 5.939 10.593 5.979C10.6786 5.98128 10.7639 5.96634 10.8436 5.93507C10.9234 5.9038 10.996 5.85684 11.0573 5.79697C11.1186 5.7371 11.1672 5.66554 11.2003 5.58653C11.2334 5.50752 11.2503 5.42266 11.25 5.337Z" fill="#B99C48"/>
</g>
</svg>
